<svg xmlns="http://www.w3.org/2000/svg" width="800" height="450" viewBox="0 0 800 450">\n<defs><filter id="shadow"><feDropShadow dx="3" dy="3" stdDeviation="2" flood-color="#000" flood-opacity="0.6"/></filter></defs>\n<rect width="100%" height="100%" fill="#E50012"/>\n<ellipse cx="400" cy="225" rx="80" ry="50" fill="none" stroke="#000000" stroke-width="45"/>\n<ellipse cx="400" cy="225" rx="170" ry="110" fill="none" stroke="#000000" stroke-width="45"/>\n<ellipse cx="400" cy="225" rx="260" ry="170" fill="none" stroke="#000000" stroke-width="45"/>\n<ellipse cx="400" cy="225" rx="350" ry="230" fill="none" stroke="#000000" stroke-width="45"/>\n<ellipse cx="400" cy="225" rx="440" ry="290" fill="none" stroke="#000000" stroke-width="45"/>\n<ellipse cx="400" cy="225" rx="530" ry="350" fill="none" stroke="#000000" stroke-width="45"/>\n<ellipse cx="400" cy="225" rx="620" ry="410" fill="none" stroke="#000000" stroke-width="45"/>\n<ellipse cx="400" cy="225" rx="30" ry="20" fill="#000000"/>\n<g transform="rotate(-7 400 225)">\n<g transform="translate(188.1,78.4) rotate(-1.6)"><rect x="-20.2" y="-45.6" width="40.5" height="60.8" fill="#555555"  filter="url(#shadow)"/><text x="0" y="2.2" font-family="Impact, Arial Black, sans-serif" font-size="45" fill="#FFFFFF" text-anchor="middle" dominant-baseline="middle">S</text></g>\n<g transform="translate(229.4,82.5) rotate(-0.3)"><rect x="-22.1" y="-49.7" width="44.1" height="66.2" fill="#FFFFFF" stroke="#000" stroke-width="2" stroke-dasharray="2,2" filter="url(#shadow)"/><text x="0" y="2.5" font-family="Impact, Arial Black, sans-serif" font-size="49" fill="#000000" text-anchor="middle" dominant-baseline="middle">I</text></g>\n<g transform="translate(274.9,78.2) rotate(8.0)"><rect x="-21.1" y="-47.6" width="42.3" height="63.5" fill="#FFFFFF"  filter="url(#shadow)"/><text x="0" y="2.4" font-family="Impact, Arial Black, sans-serif" font-size="47" fill="#000000" text-anchor="middle" dominant-baseline="middle">R</text></g>\n<g transform="translate(351.9,81.6) rotate(-8.5)"><rect x="-20.2" y="-45.6" width="40.5" height="60.8" fill="#E50012"  filter="url(#shadow)"/><text x="0" y="2.2" font-family="Impact, Arial Black, sans-serif" font-size="45" fill="#FFFFFF" text-anchor="middle" dominant-baseline="middle">V</text></g>\n<g transform="translate(393.9,81.8) rotate(-3.6)"><rect x="-22.5" y="-50.6" width="45.0" height="67.5" fill="#000000"  filter="url(#shadow)"/><text x="0" y="2.5" font-family="Impact, Arial Black, sans-serif" font-size="50" fill="#FFFFFF" text-anchor="middle" dominant-baseline="middle">I</text></g>\n<g transform="translate(438.0,78.6) rotate(-1.8)"><rect x="-22.9" y="-51.7" width="45.9" height="68.9" fill="#FFFFFF"  filter="url(#shadow)"/><text x="0" y="2.6" font-family="Impact, Arial Black, sans-serif" font-size="51" fill="#000000" text-anchor="middle" dominant-baseline="middle">S</text></g>\n<g transform="translate(485.9,83.3) rotate(1.9)"><rect x="-21.6" y="-48.6" width="43.2" height="64.8" fill="#555555"  filter="url(#shadow)"/><text x="0" y="2.4" font-family="Impact, Arial Black, sans-serif" font-size="48" fill="#FFFFFF" text-anchor="middle" dominant-baseline="middle">I</text></g>\n<g transform="translate(536.7,78.0) rotate(-6.9)"><rect x="-24.3" y="-54.7" width="48.6" height="72.9" fill="#555555"  filter="url(#shadow)"/><text x="0" y="2.7" font-family="Impact, Arial Black, sans-serif" font-size="54" fill="#FFFFFF" text-anchor="middle" dominant-baseline="middle">T</text></g>\n<g transform="translate(583.9,82.7) rotate(-4.1)"><rect x="-21.1" y="-47.6" width="42.3" height="63.5" fill="#E50012"  filter="url(#shadow)"/><text x="0" y="2.4" font-family="Impact, Arial Black, sans-serif" font-size="47" fill="#FFFFFF" text-anchor="middle" dominant-baseline="middle">O</text></g>\n<g transform="translate(629.3,76.5) rotate(1.1)"><rect x="-23.9" y="-53.7" width="47.7" height="71.6" fill="#E50012"  filter="url(#shadow)"/><text x="0" y="2.7" font-family="Impact, Arial Black, sans-serif" font-size="53" fill="#FFFFFF" text-anchor="middle" dominant-baseline="middle">R</text></g>\n<g transform="translate(266.3,156.0) rotate(2.5)"><rect x="-22.1" y="-49.7" width="44.1" height="66.2" fill="#FFFFFF"  filter="url(#shadow)"/><text x="0" y="2.5" font-family="Impact, Arial Black, sans-serif" font-size="49" fill="#000000" text-anchor="middle" dominant-baseline="middle">W</text></g>\n<g transform="translate(312.9,151.4) rotate(-6.3)"><rect x="-20.7" y="-46.6" width="41.4" height="62.1" fill="#000000"  filter="url(#shadow)"/><text x="0" y="2.3" font-family="Impact, Arial Black, sans-serif" font-size="46" fill="#FFFFFF" text-anchor="middle" dominant-baseline="middle">E</text></g>\n<g transform="translate(385.8,153.9) rotate(2.5)"><rect x="-22.1" y="-49.7" width="44.1" height="66.2" fill="#FFFFFF"  filter="url(#shadow)"/><text x="0" y="2.5" font-family="Impact, Arial Black, sans-serif" font-size="49" fill="#000000" text-anchor="middle" dominant-baseline="middle">W</text></g>\n<g transform="translate(434.9,156.2) rotate(-3.4)"><rect x="-23.9" y="-53.7" width="47.7" height="71.6" fill="#000000"  filter="url(#shadow)"/><text x="0" y="2.7" font-family="Impact, Arial Black, sans-serif" font-size="53" fill="#FFFFFF" text-anchor="middle" dominant-baseline="middle">I</text></g>\n<g transform="translate(477.6,151.2) rotate(-0.1)"><rect x="-22.1" y="-49.7" width="44.1" height="66.2" fill="#000000"  filter="url(#shadow)"/><text x="0" y="2.5" font-family="Impact, Arial Black, sans-serif" font-size="49" fill="#FFFFFF" text-anchor="middle" dominant-baseline="middle">L</text></g>\n<g transform="translate(527.2,157.3) rotate(-8.1)"><rect x="-20.7" y="-46.6" width="41.4" height="62.1" fill="#E50012"  filter="url(#shadow)"/><text x="0" y="2.3" font-family="Impact, Arial Black, sans-serif" font-size="46" fill="#FFFFFF" text-anchor="middle" dominant-baseline="middle">L</text></g>\n<g transform="translate(212.8,232.4) rotate(3.8)"><rect x="-21.1" y="-47.6" width="42.3" height="63.5" fill="#FFFFFF"  filter="url(#shadow)"/><text x="0" y="2.4" font-family="Impact, Arial Black, sans-serif" font-size="47" fill="#000000" text-anchor="middle" dominant-baseline="middle">S</text></g>\n<g transform="translate(256.4,231.2) rotate(7.1)"><rect x="-22.1" y="-49.7" width="44.1" height="66.2" fill="#E50012"  filter="url(#shadow)"/><text x="0" y="2.5" font-family="Impact, Arial Black, sans-serif" font-size="49" fill="#FFFFFF" text-anchor="middle" dominant-baseline="middle">T</text></g>\n<g transform="translate(302.2,227.3) rotate(5.3)"><rect x="-23.9" y="-53.7" width="47.7" height="71.6" fill="#E50012"  filter="url(#shadow)"/><text x="0" y="2.7" font-family="Impact, Arial Black, sans-serif" font-size="53" fill="#FFFFFF" text-anchor="middle" dominant-baseline="middle">E</text></g>\n<g transform="translate(349.1,232.7) rotate(-8.6)"><rect x="-22.9" y="-51.7" width="45.9" height="68.9" fill="#FFFFFF"  filter="url(#shadow)"/><text x="0" y="2.6" font-family="Impact, Arial Black, sans-serif" font-size="51" fill="#000000" text-anchor="middle" dominant-baseline="middle">A</text></g>\n<g transform="translate(396.6,232.5) rotate(-1.2)"><rect x="-22.9" y="-51.7" width="45.9" height="68.9" fill="#555555"  filter="url(#shadow)"/><text x="0" y="2.6" font-family="Impact, Arial Black, sans-serif" font-size="51" fill="#FFFFFF" text-anchor="middle" dominant-baseline="middle">L</text></g>\n<g transform="translate(474.3,232.9) rotate(3.6)"><rect x="-24.8" y="-55.7" width="49.5" height="74.2" fill="#FFFFFF" stroke="#000" stroke-width="2" stroke-dasharray="2,2" filter="url(#shadow)"/><text x="0" y="2.8" font-family="Impact, Arial Black, sans-serif" font-size="55" fill="#000000" text-anchor="middle" dominant-baseline="middle">Y</text></g>\n<g transform="translate(525.3,226.5) rotate(3.0)"><rect x="-24.3" y="-54.7" width="48.6" height="72.9" fill="#E50012"  filter="url(#shadow)"/><text x="0" y="2.7" font-family="Impact, Arial Black, sans-serif" font-size="54" fill="#FFFFFF" text-anchor="middle" dominant-baseline="middle">O</text></g>\n<g transform="translate(571.3,226.7) rotate(7.9)"><rect x="-22.5" y="-50.6" width="45.0" height="67.5" fill="#000000"  filter="url(#shadow)"/><text x="0" y="2.5" font-family="Impact, Arial Black, sans-serif" font-size="50" fill="#FFFFFF" text-anchor="middle" dominant-baseline="middle">U</text></g>\n<g transform="translate(625.0,232.4) rotate(6.3)"><rect x="-22.9" y="-51.7" width="45.9" height="68.9" fill="#555555"  filter="url(#shadow)"/><text x="0" y="2.6" font-family="Impact, Arial Black, sans-serif" font-size="51" fill="#FFFFFF" text-anchor="middle" dominant-baseline="middle">R</text></g>\n<g transform="translate(294.2,306.3) rotate(4.3)"><rect x="-22.9" y="-51.7" width="45.9" height="68.9" fill="#FFFFFF"  filter="url(#shadow)"/><text x="0" y="2.6" font-family="Impact, Arial Black, sans-serif" font-size="51" fill="#000000" text-anchor="middle" dominant-baseline="middle">B</text></g>\n<g transform="translate(341.7,301.7) rotate(-5.1)"><rect x="-22.1" y="-49.7" width="44.1" height="66.2" fill="#E50012"  filter="url(#shadow)"/><text x="0" y="2.5" font-family="Impact, Arial Black, sans-serif" font-size="49" fill="#FFFFFF" text-anchor="middle" dominant-baseline="middle">U</text></g>\n<g transform="translate(385.7,303.6) rotate(6.7)"><rect x="-20.2" y="-45.6" width="40.5" height="60.8" fill="#FFFFFF"  filter="url(#shadow)"/><text x="0" y="2.2" font-family="Impact, Arial Black, sans-serif" font-size="45" fill="#000000" text-anchor="middle" dominant-baseline="middle">G</text></g>\n<g transform="translate(431.7,307.2) rotate(3.4)"><rect x="-22.9" y="-51.7" width="45.9" height="68.9" fill="#000000"  filter="url(#shadow)"/><text x="0" y="2.6" font-family="Impact, Arial Black, sans-serif" font-size="51" fill="#FFFFFF" text-anchor="middle" dominant-baseline="middle">S</text></g>\n<g transform="translate(478.9,302.1) rotate(6.9)"><rect x="-21.6" y="-48.6" width="43.2" height="64.8" fill="#FFFFFF" stroke="#000" stroke-width="2" stroke-dasharray="2,2" filter="url(#shadow)"/><text x="0" y="2.4" font-family="Impact, Arial Black, sans-serif" font-size="48" fill="#000000" text-anchor="middle" dominant-baseline="middle">.</text></g>\n<g transform="translate(267.2,378.2) rotate(9.5)"><rect x="-24.8" y="-55.7" width="49.5" height="74.2" fill="#FFFFFF"  filter="url(#shadow)"/><text x="0" y="2.8" font-family="Impact, Arial Black, sans-serif" font-size="55" fill="#000000" text-anchor="middle" dominant-baseline="middle">-</text></g>\n<g transform="translate(348.9,379.2) rotate(2.5)"><rect x="-22.1" y="-49.7" width="44.1" height="66.2" fill="#000000"  filter="url(#shadow)"/><text x="0" y="2.5" font-family="Impact, Arial Black, sans-serif" font-size="49" fill="#FFFFFF" text-anchor="middle" dominant-baseline="middle">Y</text></g>\n<g transform="translate(390.6,376.8) rotate(-5.5)"><rect x="-20.2" y="-45.6" width="40.5" height="60.8" fill="#E50012"  filter="url(#shadow)"/><text x="0" y="2.2" font-family="Impact, Arial Black, sans-serif" font-size="45" fill="#FFFFFF" text-anchor="middle" dominant-baseline="middle">A</text></g>\n<g transform="translate(434.7,378.7) rotate(-9.0)"><rect x="-23.4" y="-52.7" width="46.8" height="70.2" fill="#E50012"  filter="url(#shadow)"/><text x="0" y="2.6" font-family="Impact, Arial Black, sans-serif" font-size="52" fill="#FFFFFF" text-anchor="middle" dominant-baseline="middle">S</text></g>\n<g transform="translate(486.9,382.5) rotate(-4.6)"><rect x="-22.5" y="-50.6" width="45.0" height="67.5" fill="#555555"  filter="url(#shadow)"/><text x="0" y="2.5" font-family="Impact, Arial Black, sans-serif" font-size="50" fill="#FFFFFF" text-anchor="middle" dominant-baseline="middle">E</text></g>\n<g transform="translate(528.9,381.9) rotate(-0.3)"><rect x="-21.1" y="-47.6" width="42.3" height="63.5" fill="#000000"  filter="url(#shadow)"/><text x="0" y="2.4" font-family="Impact, Arial Black, sans-serif" font-size="47" fill="#FFFFFF" text-anchor="middle" dominant-baseline="middle">R</text></g>\n</g>\n</svg>