<svg xmlns="http://www.w3.org/2000/svg" width="800" height="450" viewBox="0 0 800 450">
<defs><filter id="shadow"><feDropShadow dx="2" dy="2" stdDeviation="1" flood-color="#000" flood-opacity="0.5"/></filter></defs>
<rect width="100%" height="100%" fill="#E50012"/>
<ellipse cx="400" cy="225" rx="80" ry="50" fill="none" stroke="#000000" stroke-width="45"/>
<ellipse cx="400" cy="225" rx="170" ry="110" fill="none" stroke="#000000" stroke-width="45"/>
<ellipse cx="400" cy="225" rx="260" ry="170" fill="none" stroke="#000000" stroke-width="45"/>
<ellipse cx="400" cy="225" rx="350" ry="230" fill="none" stroke="#000000" stroke-width="45"/>
<ellipse cx="400" cy="225" rx="440" ry="290" fill="none" stroke="#000000" stroke-width="45"/>
<ellipse cx="400" cy="225" rx="530" ry="350" fill="none" stroke="#000000" stroke-width="45"/>
<ellipse cx="400" cy="225" rx="620" ry="410" fill="none" stroke="#000000" stroke-width="45"/>
<ellipse cx="400" cy="225" rx="30" ry="20" fill="#000000"/>
<g transform="translate(208.7,57.2) rotate(-11.4)"><rect x="-17.4" y="-40.0" width="34.9" height="53.3" fill="#FFFFFF"  filter="url(#shadow)"/><text x="0" y="2.1" font-family="Impact, Arial Black, sans-serif" font-size="41" fill="#000000" text-anchor="middle" dominant-baseline="middle">S</text></g>
<g transform="translate(242.4,55.9) rotate(2.2)"><rect x="-18.2" y="-41.9" width="36.5" height="55.9" fill="#FFFFFF"  filter="url(#shadow)"/><text x="0" y="2.1" font-family="Impact, Arial Black, sans-serif" font-size="43" fill="#000000" text-anchor="middle" dominant-baseline="middle">I</text></g>
<g transform="translate(283.1,62.0) rotate(1.5)"><rect x="-19.6" y="-44.8" width="39.1" height="59.8" fill="#FFFFFF"  filter="url(#shadow)"/><text x="0" y="2.3" font-family="Impact, Arial Black, sans-serif" font-size="46" fill="#000000" text-anchor="middle" dominant-baseline="middle">R</text></g>
<g transform="translate(343.0,63.1) rotate(7.4)"><rect x="-19.6" y="-44.8" width="39.1" height="59.8" fill="#555555"  filter="url(#shadow)"/><text x="0" y="2.3" font-family="Impact, Arial Black, sans-serif" font-size="46" fill="#FFFFFF" text-anchor="middle" dominant-baseline="middle">V</text></g>
<g transform="translate(383.4,62.6) rotate(-5.3)"><rect x="-17.4" y="-40.0" width="34.9" height="53.3" fill="#555555"  filter="url(#shadow)"/><text x="0" y="2.1" font-family="Impact, Arial Black, sans-serif" font-size="41" fill="#FFFFFF" text-anchor="middle" dominant-baseline="middle">I</text></g>
<g transform="translate(419.5,58.4) rotate(-2.9)"><rect x="-18.7" y="-42.9" width="37.4" height="57.2" fill="#FFFFFF" stroke="#000" stroke-width="1" stroke-dasharray="2,2" filter="url(#shadow)"/><text x="0" y="2.2" font-family="Impact, Arial Black, sans-serif" font-size="44" fill="#000000" text-anchor="middle" dominant-baseline="middle">S</text></g>
<g transform="translate(460.6,58.8) rotate(0.9)"><rect x="-20.4" y="-46.8" width="40.8" height="62.4" fill="#E50012"  filter="url(#shadow)"/><text x="0" y="2.4" font-family="Impact, Arial Black, sans-serif" font-size="48" fill="#FFFFFF" text-anchor="middle" dominant-baseline="middle">I</text></g>
<g transform="translate(499.3,63.6) rotate(7.9)"><rect x="-20.8" y="-47.8" width="41.6" height="63.7" fill="#555555"  filter="url(#shadow)"/><text x="0" y="2.5" font-family="Impact, Arial Black, sans-serif" font-size="49" fill="#FFFFFF" text-anchor="middle" dominant-baseline="middle">T</text></g>
<g transform="translate(537.4,57.3) rotate(4.9)"><rect x="-18.7" y="-42.9" width="37.4" height="57.2" fill="#000000"  filter="url(#shadow)"/><text x="0" y="2.2" font-family="Impact, Arial Black, sans-serif" font-size="44" fill="#FFFFFF" text-anchor="middle" dominant-baseline="middle">O</text></g>
<g transform="translate(579.8,58.8) rotate(8.5)"><rect x="-19.9" y="-45.8" width="39.9" height="61.1" fill="#FFFFFF"  filter="url(#shadow)"/><text x="0" y="2.4" font-family="Impact, Arial Black, sans-serif" font-size="47" fill="#000000" text-anchor="middle" dominant-baseline="middle">R</text></g>
<g transform="translate(-85.9,111.7) rotate(-8.1)"><rect x="-21.2" y="-48.8" width="42.5" height="65.0" fill="#555555"  filter="url(#shadow)"/><text x="0" y="2.5" font-family="Impact, Arial Black, sans-serif" font-size="50" fill="#FFFFFF" text-anchor="middle" dominant-baseline="middle">T</text></g>
<g transform="translate(-44.6,112.3) rotate(2.6)"><rect x="-17.9" y="-41.0" width="35.7" height="54.6" fill="#FFFFFF"  filter="url(#shadow)"/><text x="0" y="2.1" font-family="Impact, Arial Black, sans-serif" font-size="42" fill="#000000" text-anchor="middle" dominant-baseline="middle">H</text></g>
<g transform="translate(-5.9,110.6) rotate(11.7)"><rect x="-21.2" y="-48.8" width="42.5" height="65.0" fill="#555555"  filter="url(#shadow)"/><text x="0" y="2.5" font-family="Impact, Arial Black, sans-serif" font-size="50" fill="#FFFFFF" text-anchor="middle" dominant-baseline="middle">E</text></g>
<g transform="translate(62.4,107.3) rotate(8.2)"><rect x="-17.0" y="-39.0" width="34.0" height="52.0" fill="#555555"  filter="url(#shadow)"/><text x="0" y="2.0" font-family="Impact, Arial Black, sans-serif" font-size="40" fill="#FFFFFF" text-anchor="middle" dominant-baseline="middle">G</text></g>
<g transform="translate(92.4,114.1) rotate(-2.4)"><rect x="-20.8" y="-47.8" width="41.6" height="63.7" fill="#555555"  filter="url(#shadow)"/><text x="0" y="2.5" font-family="Impact, Arial Black, sans-serif" font-size="49" fill="#FFFFFF" text-anchor="middle" dominant-baseline="middle">R</text></g>
<g transform="translate(136.5,113.8) rotate(-6.9)"><rect x="-21.2" y="-48.8" width="42.5" height="65.0" fill="#555555"  filter="url(#shadow)"/><text x="0" y="2.5" font-family="Impact, Arial Black, sans-serif" font-size="50" fill="#FFFFFF" text-anchor="middle" dominant-baseline="middle">E</text></g>
<g transform="translate(176.7,112.4) rotate(-8.6)"><rect x="-20.4" y="-46.8" width="40.8" height="62.4" fill="#E50012"  filter="url(#shadow)"/><text x="0" y="2.4" font-family="Impact, Arial Black, sans-serif" font-size="48" fill="#FFFFFF" text-anchor="middle" dominant-baseline="middle">A</text></g>
<g transform="translate(219.2,110.8) rotate(5.9)"><rect x="-19.1" y="-43.9" width="38.2" height="58.5" fill="#555555"  filter="url(#shadow)"/><text x="0" y="2.2" font-family="Impact, Arial Black, sans-serif" font-size="45" fill="#FFFFFF" text-anchor="middle" dominant-baseline="middle">T</text></g>
<g transform="translate(280.7,109.9) rotate(11.9)"><rect x="-17.0" y="-39.0" width="34.0" height="52.0" fill="#000000"  filter="url(#shadow)"/><text x="0" y="2.0" font-family="Impact, Arial Black, sans-serif" font-size="40" fill="#FFFFFF" text-anchor="middle" dominant-baseline="middle">D</text></g>
<g transform="translate(315.2,111.8) rotate(-8.3)"><rect x="-20.8" y="-47.8" width="41.6" height="63.7" fill="#FFFFFF"  filter="url(#shadow)"/><text x="0" y="2.5" font-family="Impact, Arial Black, sans-serif" font-size="49" fill="#000000" text-anchor="middle" dominant-baseline="middle">I</text></g>
<g transform="translate(358.5,107.5) rotate(2.3)"><rect x="-20.4" y="-46.8" width="40.8" height="62.4" fill="#E50012"  filter="url(#shadow)"/><text x="0" y="2.4" font-family="Impact, Arial Black, sans-serif" font-size="48" fill="#FFFFFF" text-anchor="middle" dominant-baseline="middle">S</text></g>
<g transform="translate(397.2,113.8) rotate(4.3)"><rect x="-18.7" y="-42.9" width="37.4" height="57.2" fill="#FFFFFF" stroke="#000" stroke-width="1" stroke-dasharray="2,2" filter="url(#shadow)"/><text x="0" y="2.2" font-family="Impact, Arial Black, sans-serif" font-size="44" fill="#000000" text-anchor="middle" dominant-baseline="middle">T</text></g>
<g transform="translate(436.6,109.5) rotate(-9.3)"><rect x="-18.7" y="-42.9" width="37.4" height="57.2" fill="#555555"  filter="url(#shadow)"/><text x="0" y="2.2" font-family="Impact, Arial Black, sans-serif" font-size="44" fill="#FFFFFF" text-anchor="middle" dominant-baseline="middle">O</text></g>
<g transform="translate(472.1,111.3) rotate(0.2)"><rect x="-21.2" y="-48.8" width="42.5" height="65.0" fill="#000000"  filter="url(#shadow)"/><text x="0" y="2.5" font-family="Impact, Arial Black, sans-serif" font-size="50" fill="#FFFFFF" text-anchor="middle" dominant-baseline="middle">R</text></g>
<g transform="translate(518.5,110.4) rotate(-8.3)"><rect x="-20.4" y="-46.8" width="40.8" height="62.4" fill="#000000"  filter="url(#shadow)"/><text x="0" y="2.4" font-family="Impact, Arial Black, sans-serif" font-size="48" fill="#FFFFFF" text-anchor="middle" dominant-baseline="middle">T</text></g>
<g transform="translate(557.6,106.1) rotate(2.4)"><rect x="-19.1" y="-43.9" width="38.2" height="58.5" fill="#FFFFFF" stroke="#000" stroke-width="1" stroke-dasharray="2,2" filter="url(#shadow)"/><text x="0" y="2.2" font-family="Impact, Arial Black, sans-serif" font-size="45" fill="#000000" text-anchor="middle" dominant-baseline="middle">E</text></g>
<g transform="translate(594.4,110.7) rotate(-6.3)"><rect x="-17.4" y="-40.0" width="34.9" height="53.3" fill="#555555"  filter="url(#shadow)"/><text x="0" y="2.1" font-family="Impact, Arial Black, sans-serif" font-size="41" fill="#FFFFFF" text-anchor="middle" dominant-baseline="middle">D</text></g>
<g transform="translate(658.0,114.8) rotate(5.6)"><rect x="-20.4" y="-46.8" width="40.8" height="62.4" fill="#FFFFFF" stroke="#000" stroke-width="1" stroke-dasharray="2,2" filter="url(#shadow)"/><text x="0" y="2.4" font-family="Impact, Arial Black, sans-serif" font-size="48" fill="#000000" text-anchor="middle" dominant-baseline="middle">D</text></g>
<g transform="translate(699.6,106.7) rotate(3.8)"><rect x="-20.4" y="-46.8" width="40.8" height="62.4" fill="#000000"  filter="url(#shadow)"/><text x="0" y="2.4" font-family="Impact, Arial Black, sans-serif" font-size="48" fill="#FFFFFF" text-anchor="middle" dominant-baseline="middle">E</text></g>
<g transform="translate(740.2,112.6) rotate(11.1)"><rect x="-18.2" y="-41.9" width="36.5" height="55.9" fill="#E50012"  filter="url(#shadow)"/><text x="0" y="2.1" font-family="Impact, Arial Black, sans-serif" font-size="43" fill="#FFFFFF" text-anchor="middle" dominant-baseline="middle">V</text></g>
<g transform="translate(775.3,108.7) rotate(-2.4)"><rect x="-20.4" y="-46.8" width="40.8" height="62.4" fill="#555555"  filter="url(#shadow)"/><text x="0" y="2.4" font-family="Impact, Arial Black, sans-serif" font-size="48" fill="#FFFFFF" text-anchor="middle" dominant-baseline="middle">E</text></g>
<g transform="translate(813.4,108.4) rotate(-9.1)"><rect x="-20.8" y="-47.8" width="41.6" height="63.7" fill="#E50012"  filter="url(#shadow)"/><text x="0" y="2.5" font-family="Impact, Arial Black, sans-serif" font-size="49" fill="#FFFFFF" text-anchor="middle" dominant-baseline="middle">L</text></g>
<g transform="translate(853.6,112.1) rotate(2.1)"><rect x="-17.0" y="-39.0" width="34.0" height="52.0" fill="#000000"  filter="url(#shadow)"/><text x="0" y="2.0" font-family="Impact, Arial Black, sans-serif" font-size="40" fill="#FFFFFF" text-anchor="middle" dominant-baseline="middle">O</text></g>
<g transform="translate(888.1,108.3) rotate(-10.4)"><rect x="-20.4" y="-46.8" width="40.8" height="62.4" fill="#000000"  filter="url(#shadow)"/><text x="0" y="2.4" font-family="Impact, Arial Black, sans-serif" font-size="48" fill="#FFFFFF" text-anchor="middle" dominant-baseline="middle">P</text></g>
<g transform="translate(931.6,110.4) rotate(-5.3)"><rect x="-20.8" y="-47.8" width="41.6" height="63.7" fill="#000000"  filter="url(#shadow)"/><text x="0" y="2.5" font-family="Impact, Arial Black, sans-serif" font-size="49" fill="#FFFFFF" text-anchor="middle" dominant-baseline="middle">E</text></g>
<g transform="translate(973.0,109.1) rotate(-6.2)"><rect x="-17.4" y="-40.0" width="34.9" height="53.3" fill="#E50012"  filter="url(#shadow)"/><text x="0" y="2.1" font-family="Impact, Arial Black, sans-serif" font-size="41" fill="#FFFFFF" text-anchor="middle" dominant-baseline="middle">R</text></g>
<g transform="translate(89.1,159.1) rotate(3.8)"><rect x="-17.0" y="-39.0" width="34.0" height="52.0" fill="#FFFFFF"  filter="url(#shadow)"/><text x="0" y="2.0" font-family="Impact, Arial Black, sans-serif" font-size="40" fill="#000000" text-anchor="middle" dominant-baseline="middle">Y</text></g>
<g transform="translate(125.7,163.0) rotate(-10.5)"><rect x="-17.4" y="-40.0" width="34.9" height="53.3" fill="#FFFFFF"  filter="url(#shadow)"/><text x="0" y="2.1" font-family="Impact, Arial Black, sans-serif" font-size="41" fill="#000000" text-anchor="middle" dominant-baseline="middle">O</text></g>
<g transform="translate(157.3,156.8) rotate(0.9)"><rect x="-19.9" y="-45.8" width="39.9" height="61.1" fill="#000000"  filter="url(#shadow)"/><text x="0" y="2.4" font-family="Impact, Arial Black, sans-serif" font-size="47" fill="#FFFFFF" text-anchor="middle" dominant-baseline="middle">U</text></g>
<g transform="translate(196.9,163.1) rotate(9.0)"><rect x="-20.4" y="-46.8" width="40.8" height="62.4" fill="#000000"  filter="url(#shadow)"/><text x="0" y="2.4" font-family="Impact, Arial Black, sans-serif" font-size="48" fill="#FFFFFF" text-anchor="middle" dominant-baseline="middle">R</text></g>
<g transform="translate(268.1,163.4) rotate(-10.8)"><rect x="-17.4" y="-40.0" width="34.9" height="53.3" fill="#FFFFFF" stroke="#000" stroke-width="1" stroke-dasharray="2,2" filter="url(#shadow)"/><text x="0" y="2.1" font-family="Impact, Arial Black, sans-serif" font-size="41" fill="#000000" text-anchor="middle" dominant-baseline="middle">M</text></g>
<g transform="translate(300.2,157.1) rotate(-8.0)"><rect x="-19.6" y="-44.8" width="39.1" height="59.8" fill="#000000"  filter="url(#shadow)"/><text x="0" y="2.3" font-family="Impact, Arial Black, sans-serif" font-size="46" fill="#FFFFFF" text-anchor="middle" dominant-baseline="middle">E</text></g>
<g transform="translate(336.4,158.9) rotate(-8.0)"><rect x="-19.9" y="-45.8" width="39.9" height="61.1" fill="#FFFFFF"  filter="url(#shadow)"/><text x="0" y="2.4" font-family="Impact, Arial Black, sans-serif" font-size="47" fill="#000000" text-anchor="middle" dominant-baseline="middle">S</text></g>
<g transform="translate(378.1,164.7) rotate(-8.3)"><rect x="-20.8" y="-47.8" width="41.6" height="63.7" fill="#E50012"  filter="url(#shadow)"/><text x="0" y="2.5" font-family="Impact, Arial Black, sans-serif" font-size="49" fill="#FFFFFF" text-anchor="middle" dominant-baseline="middle">S</text></g>
<g transform="translate(418.1,160.8) rotate(6.0)"><rect x="-20.4" y="-46.8" width="40.8" height="62.4" fill="#FFFFFF" stroke="#000" stroke-width="1" stroke-dasharray="2,2" filter="url(#shadow)"/><text x="0" y="2.4" font-family="Impact, Arial Black, sans-serif" font-size="48" fill="#000000" text-anchor="middle" dominant-baseline="middle">Y</text></g>
<g transform="translate(486.6,163.5) rotate(-10.6)"><rect x="-17.4" y="-40.0" width="34.9" height="53.3" fill="#000000"  filter="url(#shadow)"/><text x="0" y="2.1" font-family="Impact, Arial Black, sans-serif" font-size="41" fill="#FFFFFF" text-anchor="middle" dominant-baseline="middle">C</text></g>
<g transform="translate(520.2,156.2) rotate(4.2)"><rect x="-20.8" y="-47.8" width="41.6" height="63.7" fill="#FFFFFF"  filter="url(#shadow)"/><text x="0" y="2.5" font-family="Impact, Arial Black, sans-serif" font-size="49" fill="#000000" text-anchor="middle" dominant-baseline="middle">O</text></g>
<g transform="translate(562.8,160.8) rotate(2.9)"><rect x="-20.4" y="-46.8" width="40.8" height="62.4" fill="#FFFFFF"  filter="url(#shadow)"/><text x="0" y="2.4" font-family="Impact, Arial Black, sans-serif" font-size="48" fill="#000000" text-anchor="middle" dominant-baseline="middle">D</text></g>
<g transform="translate(605.3,157.4) rotate(-7.1)"><rect x="-19.6" y="-44.8" width="39.1" height="59.8" fill="#555555"  filter="url(#shadow)"/><text x="0" y="2.3" font-family="Impact, Arial Black, sans-serif" font-size="46" fill="#FFFFFF" text-anchor="middle" dominant-baseline="middle">E</text></g>
<g transform="translate(667.0,158.2) rotate(4.1)"><rect x="-17.4" y="-40.0" width="34.9" height="53.3" fill="#000000"  filter="url(#shadow)"/><text x="0" y="2.1" font-family="Impact, Arial Black, sans-serif" font-size="41" fill="#FFFFFF" text-anchor="middle" dominant-baseline="middle">H</text></g>
<g transform="translate(706.3,165.0) rotate(-1.0)"><rect x="-17.4" y="-40.0" width="34.9" height="53.3" fill="#FFFFFF"  filter="url(#shadow)"/><text x="0" y="2.1" font-family="Impact, Arial Black, sans-serif" font-size="41" fill="#000000" text-anchor="middle" dominant-baseline="middle">A</text></g>
<g transform="translate(737.6,155.7) rotate(-8.8)"><rect x="-18.2" y="-41.9" width="36.5" height="55.9" fill="#555555"  filter="url(#shadow)"/><text x="0" y="2.1" font-family="Impact, Arial Black, sans-serif" font-size="43" fill="#FFFFFF" text-anchor="middle" dominant-baseline="middle">S</text></g>
<g transform="translate(79.6,210.4) rotate(-5.2)"><rect x="-18.7" y="-42.9" width="37.4" height="57.2" fill="#555555"  filter="url(#shadow)"/><text x="0" y="2.2" font-family="Impact, Arial Black, sans-serif" font-size="44" fill="#FFFFFF" text-anchor="middle" dominant-baseline="middle">B</text></g>
<g transform="translate(117.8,214.3) rotate(4.0)"><rect x="-17.4" y="-40.0" width="34.9" height="53.3" fill="#FFFFFF" stroke="#000" stroke-width="1" stroke-dasharray="2,2" filter="url(#shadow)"/><text x="0" y="2.1" font-family="Impact, Arial Black, sans-serif" font-size="41" fill="#000000" text-anchor="middle" dominant-baseline="middle">E</text></g>
<g transform="translate(155.0,212.4) rotate(-5.7)"><rect x="-17.9" y="-41.0" width="35.7" height="54.6" fill="#000000"  filter="url(#shadow)"/><text x="0" y="2.1" font-family="Impact, Arial Black, sans-serif" font-size="42" fill="#FFFFFF" text-anchor="middle" dominant-baseline="middle">E</text></g>
<g transform="translate(186.9,208.4) rotate(-5.2)"><rect x="-21.2" y="-48.8" width="42.5" height="65.0" fill="#555555"  filter="url(#shadow)"/><text x="0" y="2.5" font-family="Impact, Arial Black, sans-serif" font-size="50" fill="#FFFFFF" text-anchor="middle" dominant-baseline="middle">N</text></g>
<g transform="translate(254.5,214.1) rotate(0.1)"><rect x="-17.0" y="-39.0" width="34.0" height="52.0" fill="#555555"  filter="url(#shadow)"/><text x="0" y="2.0" font-family="Impact, Arial Black, sans-serif" font-size="40" fill="#FFFFFF" text-anchor="middle" dominant-baseline="middle">F</text></g>
<g transform="translate(292.3,205.4) rotate(3.2)"><rect x="-19.1" y="-43.9" width="38.2" height="58.5" fill="#FFFFFF" stroke="#000" stroke-width="1" stroke-dasharray="2,2" filter="url(#shadow)"/><text x="0" y="2.2" font-family="Impact, Arial Black, sans-serif" font-size="45" fill="#000000" text-anchor="middle" dominant-baseline="middle">U</text></g>
<g transform="translate(328.3,212.1) rotate(-8.1)"><rect x="-20.4" y="-46.8" width="40.8" height="62.4" fill="#555555"  filter="url(#shadow)"/><text x="0" y="2.4" font-family="Impact, Arial Black, sans-serif" font-size="48" fill="#FFFFFF" text-anchor="middle" dominant-baseline="middle">L</text></g>
<g transform="translate(372.0,211.9) rotate(-9.3)"><rect x="-17.9" y="-41.0" width="35.7" height="54.6" fill="#FFFFFF"  filter="url(#shadow)"/><text x="0" y="2.1" font-family="Impact, Arial Black, sans-serif" font-size="42" fill="#000000" text-anchor="middle" dominant-baseline="middle">L</text></g>
<g transform="translate(403.1,206.3) rotate(2.0)"><rect x="-18.7" y="-42.9" width="37.4" height="57.2" fill="#555555"  filter="url(#shadow)"/><text x="0" y="2.2" font-family="Impact, Arial Black, sans-serif" font-size="44" fill="#FFFFFF" text-anchor="middle" dominant-baseline="middle">Y</text></g>
<g transform="translate(469.6,213.6) rotate(9.6)"><rect x="-19.1" y="-43.9" width="38.2" height="58.5" fill="#555555"  filter="url(#shadow)"/><text x="0" y="2.2" font-family="Impact, Arial Black, sans-serif" font-size="45" fill="#FFFFFF" text-anchor="middle" dominant-baseline="middle">E</text></g>
<g transform="translate(507.1,208.5) rotate(4.4)"><rect x="-20.4" y="-46.8" width="40.8" height="62.4" fill="#000000"  filter="url(#shadow)"/><text x="0" y="2.4" font-family="Impact, Arial Black, sans-serif" font-size="48" fill="#FFFFFF" text-anchor="middle" dominant-baseline="middle">X</text></g>
<g transform="translate(548.3,214.3) rotate(11.4)"><rect x="-18.2" y="-41.9" width="36.5" height="55.9" fill="#E50012"  filter="url(#shadow)"/><text x="0" y="2.1" font-family="Impact, Arial Black, sans-serif" font-size="43" fill="#FFFFFF" text-anchor="middle" dominant-baseline="middle">P</text></g>
<g transform="translate(585.4,213.8) rotate(11.4)"><rect x="-17.0" y="-39.0" width="34.0" height="52.0" fill="#000000"  filter="url(#shadow)"/><text x="0" y="2.0" font-family="Impact, Arial Black, sans-serif" font-size="40" fill="#FFFFFF" text-anchor="middle" dominant-baseline="middle">O</text></g>
<g transform="translate(616.8,214.3) rotate(5.7)"><rect x="-21.2" y="-48.8" width="42.5" height="65.0" fill="#000000"  filter="url(#shadow)"/><text x="0" y="2.5" font-family="Impact, Arial Black, sans-serif" font-size="50" fill="#FFFFFF" text-anchor="middle" dominant-baseline="middle">S</text></g>
<g transform="translate(661.9,206.1) rotate(-5.6)"><rect x="-17.0" y="-39.0" width="34.0" height="52.0" fill="#000000"  filter="url(#shadow)"/><text x="0" y="2.0" font-family="Impact, Arial Black, sans-serif" font-size="40" fill="#FFFFFF" text-anchor="middle" dominant-baseline="middle">E</text></g>
<g transform="translate(696.4,209.6) rotate(-6.7)"><rect x="-18.7" y="-42.9" width="37.4" height="57.2" fill="#E50012"  filter="url(#shadow)"/><text x="0" y="2.2" font-family="Impact, Arial Black, sans-serif" font-size="44" fill="#FFFFFF" text-anchor="middle" dominant-baseline="middle">D</text></g>
<g transform="translate(733.0,209.0) rotate(-6.6)"><rect x="-18.7" y="-42.9" width="37.4" height="57.2" fill="#000000"  filter="url(#shadow)"/><text x="0" y="2.2" font-family="Impact, Arial Black, sans-serif" font-size="44" fill="#FFFFFF" text-anchor="middle" dominant-baseline="middle">.</text></g>
<g transform="translate(28.7,261.4) rotate(11.2)"><rect x="-19.6" y="-44.8" width="39.1" height="59.8" fill="#FFFFFF"  filter="url(#shadow)"/><text x="0" y="2.3" font-family="Impact, Arial Black, sans-serif" font-size="46" fill="#000000" text-anchor="middle" dominant-baseline="middle">W</text></g>
<g transform="translate(66.8,264.7) rotate(10.5)"><rect x="-17.9" y="-41.0" width="35.7" height="54.6" fill="#555555"  filter="url(#shadow)"/><text x="0" y="2.1" font-family="Impact, Arial Black, sans-serif" font-size="42" fill="#FFFFFF" text-anchor="middle" dominant-baseline="middle">E</text></g>
<g transform="translate(130.7,258.5) rotate(-11.1)"><rect x="-19.1" y="-43.9" width="38.2" height="58.5" fill="#555555"  filter="url(#shadow)"/><text x="0" y="2.2" font-family="Impact, Arial Black, sans-serif" font-size="45" fill="#FFFFFF" text-anchor="middle" dominant-baseline="middle">W</text></g>
<g transform="translate(168.4,258.9) rotate(2.5)"><rect x="-20.8" y="-47.8" width="41.6" height="63.7" fill="#E50012"  filter="url(#shadow)"/><text x="0" y="2.5" font-family="Impact, Arial Black, sans-serif" font-size="49" fill="#FFFFFF" text-anchor="middle" dominant-baseline="middle">I</text></g>
<g transform="translate(211.2,255.0) rotate(-5.9)"><rect x="-20.4" y="-46.8" width="40.8" height="62.4" fill="#000000"  filter="url(#shadow)"/><text x="0" y="2.4" font-family="Impact, Arial Black, sans-serif" font-size="48" fill="#FFFFFF" text-anchor="middle" dominant-baseline="middle">L</text></g>
<g transform="translate(248.0,261.6) rotate(-3.3)"><rect x="-19.1" y="-43.9" width="38.2" height="58.5" fill="#000000"  filter="url(#shadow)"/><text x="0" y="2.2" font-family="Impact, Arial Black, sans-serif" font-size="45" fill="#FFFFFF" text-anchor="middle" dominant-baseline="middle">L</text></g>
<g transform="translate(311.6,264.0) rotate(3.9)"><rect x="-20.4" y="-46.8" width="40.8" height="62.4" fill="#555555"  filter="url(#shadow)"/><text x="0" y="2.4" font-family="Impact, Arial Black, sans-serif" font-size="48" fill="#FFFFFF" text-anchor="middle" dominant-baseline="middle">S</text></g>
<g transform="translate(353.7,262.0) rotate(4.0)"><rect x="-20.4" y="-46.8" width="40.8" height="62.4" fill="#555555"  filter="url(#shadow)"/><text x="0" y="2.4" font-family="Impact, Arial Black, sans-serif" font-size="48" fill="#FFFFFF" text-anchor="middle" dominant-baseline="middle">T</text></g>
<g transform="translate(396.4,258.8) rotate(-7.4)"><rect x="-17.9" y="-41.0" width="35.7" height="54.6" fill="#000000"  filter="url(#shadow)"/><text x="0" y="2.1" font-family="Impact, Arial Black, sans-serif" font-size="42" fill="#FFFFFF" text-anchor="middle" dominant-baseline="middle">E</text></g>
<g transform="translate(433.4,258.0) rotate(-2.3)"><rect x="-18.2" y="-41.9" width="36.5" height="55.9" fill="#555555"  filter="url(#shadow)"/><text x="0" y="2.1" font-family="Impact, Arial Black, sans-serif" font-size="43" fill="#FFFFFF" text-anchor="middle" dominant-baseline="middle">A</text></g>
<g transform="translate(468.6,258.2) rotate(6.9)"><rect x="-19.9" y="-45.8" width="39.9" height="61.1" fill="#E50012"  filter="url(#shadow)"/><text x="0" y="2.4" font-family="Impact, Arial Black, sans-serif" font-size="47" fill="#FFFFFF" text-anchor="middle" dominant-baseline="middle">L</text></g>
<g transform="translate(533.0,262.9) rotate(4.2)"><rect x="-17.9" y="-41.0" width="35.7" height="54.6" fill="#E50012"  filter="url(#shadow)"/><text x="0" y="2.1" font-family="Impact, Arial Black, sans-serif" font-size="42" fill="#FFFFFF" text-anchor="middle" dominant-baseline="middle">Y</text></g>
<g transform="translate(569.8,261.2) rotate(-5.2)"><rect x="-17.4" y="-40.0" width="34.9" height="53.3" fill="#FFFFFF" stroke="#000" stroke-width="1" stroke-dasharray="2,2" filter="url(#shadow)"/><text x="0" y="2.1" font-family="Impact, Arial Black, sans-serif" font-size="41" fill="#000000" text-anchor="middle" dominant-baseline="middle">O</text></g>
<g transform="translate(602.3,257.0) rotate(4.1)"><rect x="-17.0" y="-39.0" width="34.0" height="52.0" fill="#000000"  filter="url(#shadow)"/><text x="0" y="2.0" font-family="Impact, Arial Black, sans-serif" font-size="40" fill="#FFFFFF" text-anchor="middle" dominant-baseline="middle">U</text></g>
<g transform="translate(638.2,263.5) rotate(-6.1)"><rect x="-17.4" y="-40.0" width="34.9" height="53.3" fill="#FFFFFF"  filter="url(#shadow)"/><text x="0" y="2.1" font-family="Impact, Arial Black, sans-serif" font-size="41" fill="#000000" text-anchor="middle" dominant-baseline="middle">R</text></g>
<g transform="translate(697.8,259.0) rotate(5.2)"><rect x="-17.9" y="-41.0" width="35.7" height="54.6" fill="#000000"  filter="url(#shadow)"/><text x="0" y="2.1" font-family="Impact, Arial Black, sans-serif" font-size="42" fill="#FFFFFF" text-anchor="middle" dominant-baseline="middle">B</text></g>
<g transform="translate(736.6,263.9) rotate(9.4)"><rect x="-19.6" y="-44.8" width="39.1" height="59.8" fill="#FFFFFF"  filter="url(#shadow)"/><text x="0" y="2.3" font-family="Impact, Arial Black, sans-serif" font-size="46" fill="#000000" text-anchor="middle" dominant-baseline="middle">U</text></g>
<g transform="translate(772.0,263.5) rotate(-10.8)"><rect x="-19.9" y="-45.8" width="39.9" height="61.1" fill="#E50012"  filter="url(#shadow)"/><text x="0" y="2.4" font-family="Impact, Arial Black, sans-serif" font-size="47" fill="#FFFFFF" text-anchor="middle" dominant-baseline="middle">G</text></g>
<g transform="translate(814.4,264.9) rotate(7.2)"><rect x="-20.8" y="-47.8" width="41.6" height="63.7" fill="#000000"  filter="url(#shadow)"/><text x="0" y="2.5" font-family="Impact, Arial Black, sans-serif" font-size="49" fill="#FFFFFF" text-anchor="middle" dominant-baseline="middle">S</text></g>
<g transform="translate(22.3,311.1) rotate(10.8)"><rect x="-20.4" y="-46.8" width="40.8" height="62.4" fill="#555555"  filter="url(#shadow)"/><text x="0" y="2.4" font-family="Impact, Arial Black, sans-serif" font-size="48" fill="#FFFFFF" text-anchor="middle" dominant-baseline="middle">A</text></g>
<g transform="translate(61.1,314.0) rotate(7.9)"><rect x="-19.9" y="-45.8" width="39.9" height="61.1" fill="#E50012"  filter="url(#shadow)"/><text x="0" y="2.4" font-family="Impact, Arial Black, sans-serif" font-size="47" fill="#FFFFFF" text-anchor="middle" dominant-baseline="middle">N</text></g>
<g transform="translate(99.2,311.4) rotate(-5.8)"><rect x="-20.4" y="-46.8" width="40.8" height="62.4" fill="#E50012"  filter="url(#shadow)"/><text x="0" y="2.4" font-family="Impact, Arial Black, sans-serif" font-size="48" fill="#FFFFFF" text-anchor="middle" dominant-baseline="middle">D</text></g>
<g transform="translate(165.0,305.8) rotate(3.0)"><rect x="-18.7" y="-42.9" width="37.4" height="57.2" fill="#E50012"  filter="url(#shadow)"/><text x="0" y="2.2" font-family="Impact, Arial Black, sans-serif" font-size="44" fill="#FFFFFF" text-anchor="middle" dominant-baseline="middle">R</text></g>
<g transform="translate(202.9,310.4) rotate(-5.5)"><rect x="-17.9" y="-41.0" width="35.7" height="54.6" fill="#000000"  filter="url(#shadow)"/><text x="0" y="2.1" font-family="Impact, Arial Black, sans-serif" font-size="42" fill="#FFFFFF" text-anchor="middle" dominant-baseline="middle">E</text></g>
<g transform="translate(241.1,312.1) rotate(-6.4)"><rect x="-17.4" y="-40.0" width="34.9" height="53.3" fill="#000000"  filter="url(#shadow)"/><text x="0" y="2.1" font-family="Impact, Arial Black, sans-serif" font-size="41" fill="#FFFFFF" text-anchor="middle" dominant-baseline="middle">W</text></g>
<g transform="translate(275.3,309.2) rotate(-2.2)"><rect x="-18.2" y="-41.9" width="36.5" height="55.9" fill="#E50012"  filter="url(#shadow)"/><text x="0" y="2.1" font-family="Impact, Arial Black, sans-serif" font-size="43" fill="#FFFFFF" text-anchor="middle" dominant-baseline="middle">R</text></g>
<g transform="translate(313.3,314.5) rotate(-2.7)"><rect x="-17.0" y="-39.0" width="34.0" height="52.0" fill="#E50012"  filter="url(#shadow)"/><text x="0" y="2.0" font-family="Impact, Arial Black, sans-serif" font-size="40" fill="#FFFFFF" text-anchor="middle" dominant-baseline="middle">I</text></g>
<g transform="translate(348.7,308.0) rotate(-0.6)"><rect x="-19.6" y="-44.8" width="39.1" height="59.8" fill="#E50012"  filter="url(#shadow)"/><text x="0" y="2.3" font-family="Impact, Arial Black, sans-serif" font-size="46" fill="#FFFFFF" text-anchor="middle" dominant-baseline="middle">T</text></g>
<g transform="translate(386.5,313.0) rotate(0.9)"><rect x="-18.2" y="-41.9" width="36.5" height="55.9" fill="#E50012"  filter="url(#shadow)"/><text x="0" y="2.1" font-family="Impact, Arial Black, sans-serif" font-size="43" fill="#FFFFFF" text-anchor="middle" dominant-baseline="middle">E</text></g>
<g transform="translate(446.4,305.3) rotate(-6.7)"><rect x="-19.1" y="-43.9" width="38.2" height="58.5" fill="#E50012"  filter="url(#shadow)"/><text x="0" y="2.2" font-family="Impact, Arial Black, sans-serif" font-size="45" fill="#FFFFFF" text-anchor="middle" dominant-baseline="middle">Y</text></g>
<g transform="translate(487.1,314.2) rotate(5.4)"><rect x="-20.8" y="-47.8" width="41.6" height="63.7" fill="#E50012"  filter="url(#shadow)"/><text x="0" y="2.5" font-family="Impact, Arial Black, sans-serif" font-size="49" fill="#FFFFFF" text-anchor="middle" dominant-baseline="middle">O</text></g>
<g transform="translate(527.2,311.6) rotate(9.8)"><rect x="-17.4" y="-40.0" width="34.9" height="53.3" fill="#FFFFFF"  filter="url(#shadow)"/><text x="0" y="2.1" font-family="Impact, Arial Black, sans-serif" font-size="41" fill="#000000" text-anchor="middle" dominant-baseline="middle">U</text></g>
<g transform="translate(559.9,307.6) rotate(8.8)"><rect x="-19.1" y="-43.9" width="38.2" height="58.5" fill="#000000"  filter="url(#shadow)"/><text x="0" y="2.2" font-family="Impact, Arial Black, sans-serif" font-size="45" fill="#FFFFFF" text-anchor="middle" dominant-baseline="middle">R</text></g>
<g transform="translate(624.1,313.8) rotate(-1.1)"><rect x="-18.7" y="-42.9" width="37.4" height="57.2" fill="#000000"  filter="url(#shadow)"/><text x="0" y="2.2" font-family="Impact, Arial Black, sans-serif" font-size="44" fill="#FFFFFF" text-anchor="middle" dominant-baseline="middle">S</text></g>
<g transform="translate(660.1,305.2) rotate(-5.9)"><rect x="-20.4" y="-46.8" width="40.8" height="62.4" fill="#E50012"  filter="url(#shadow)"/><text x="0" y="2.4" font-family="Impact, Arial Black, sans-serif" font-size="48" fill="#FFFFFF" text-anchor="middle" dominant-baseline="middle">Y</text></g>
<g transform="translate(702.5,311.5) rotate(12.0)"><rect x="-21.2" y="-48.8" width="42.5" height="65.0" fill="#FFFFFF"  filter="url(#shadow)"/><text x="0" y="2.5" font-family="Impact, Arial Black, sans-serif" font-size="50" fill="#000000" text-anchor="middle" dominant-baseline="middle">S</text></g>
<g transform="translate(743.9,305.2) rotate(10.8)"><rect x="-17.9" y="-41.0" width="35.7" height="54.6" fill="#FFFFFF"  filter="url(#shadow)"/><text x="0" y="2.1" font-family="Impact, Arial Black, sans-serif" font-size="42" fill="#000000" text-anchor="middle" dominant-baseline="middle">T</text></g>
<g transform="translate(782.1,307.2) rotate(4.1)"><rect x="-18.7" y="-42.9" width="37.4" height="57.2" fill="#E50012"  filter="url(#shadow)"/><text x="0" y="2.2" font-family="Impact, Arial Black, sans-serif" font-size="44" fill="#FFFFFF" text-anchor="middle" dominant-baseline="middle">E</text></g>
<g transform="translate(819.8,312.5) rotate(-8.0)"><rect x="-17.4" y="-40.0" width="34.9" height="53.3" fill="#555555"  filter="url(#shadow)"/><text x="0" y="2.1" font-family="Impact, Arial Black, sans-serif" font-size="41" fill="#FFFFFF" text-anchor="middle" dominant-baseline="middle">M</text></g>
<g transform="translate(155.1,355.3) rotate(11.2)"><rect x="-18.7" y="-42.9" width="37.4" height="57.2" fill="#000000"  filter="url(#shadow)"/><text x="0" y="2.2" font-family="Impact, Arial Black, sans-serif" font-size="44" fill="#FFFFFF" text-anchor="middle" dominant-baseline="middle">W</text></g>
<g transform="translate(196.3,355.8) rotate(-2.5)"><rect x="-21.2" y="-48.8" width="42.5" height="65.0" fill="#E50012"  filter="url(#shadow)"/><text x="0" y="2.5" font-family="Impact, Arial Black, sans-serif" font-size="50" fill="#FFFFFF" text-anchor="middle" dominant-baseline="middle">I</text></g>
<g transform="translate(239.0,363.5) rotate(-9.6)"><rect x="-20.8" y="-47.8" width="41.6" height="63.7" fill="#000000"  filter="url(#shadow)"/><text x="0" y="2.5" font-family="Impact, Arial Black, sans-serif" font-size="49" fill="#FFFFFF" text-anchor="middle" dominant-baseline="middle">T</text></g>
<g transform="translate(279.3,355.4) rotate(7.1)"><rect x="-20.4" y="-46.8" width="40.8" height="62.4" fill="#FFFFFF"  filter="url(#shadow)"/><text x="0" y="2.4" font-family="Impact, Arial Black, sans-serif" font-size="48" fill="#000000" text-anchor="middle" dominant-baseline="middle">H</text></g>
<g transform="translate(320.6,355.1) rotate(-10.3)"><rect x="-19.6" y="-44.8" width="39.1" height="59.8" fill="#555555"  filter="url(#shadow)"/><text x="0" y="2.3" font-family="Impact, Arial Black, sans-serif" font-size="46" fill="#FFFFFF" text-anchor="middle" dominant-baseline="middle">O</text></g>
<g transform="translate(361.6,361.4) rotate(-9.5)"><rect x="-19.9" y="-45.8" width="39.9" height="61.1" fill="#E50012"  filter="url(#shadow)"/><text x="0" y="2.4" font-family="Impact, Arial Black, sans-serif" font-size="47" fill="#FFFFFF" text-anchor="middle" dominant-baseline="middle">U</text></g>
<g transform="translate(400.1,364.7) rotate(-1.5)"><rect x="-18.7" y="-42.9" width="37.4" height="57.2" fill="#000000"  filter="url(#shadow)"/><text x="0" y="2.2" font-family="Impact, Arial Black, sans-serif" font-size="44" fill="#FFFFFF" text-anchor="middle" dominant-baseline="middle">T</text></g>
<g transform="translate(463.3,360.9) rotate(-0.8)"><rect x="-19.1" y="-43.9" width="38.2" height="58.5" fill="#E50012"  filter="url(#shadow)"/><text x="0" y="2.2" font-family="Impact, Arial Black, sans-serif" font-size="45" fill="#FFFFFF" text-anchor="middle" dominant-baseline="middle">M</text></g>
<g transform="translate(497.1,363.8) rotate(7.9)"><rect x="-18.2" y="-41.9" width="36.5" height="55.9" fill="#000000"  filter="url(#shadow)"/><text x="0" y="2.1" font-family="Impact, Arial Black, sans-serif" font-size="43" fill="#FFFFFF" text-anchor="middle" dominant-baseline="middle">E</text></g>
<g transform="translate(537.2,358.4) rotate(1.7)"><rect x="-19.9" y="-45.8" width="39.9" height="61.1" fill="#E50012"  filter="url(#shadow)"/><text x="0" y="2.4" font-family="Impact, Arial Black, sans-serif" font-size="47" fill="#FFFFFF" text-anchor="middle" dominant-baseline="middle">R</text></g>
<g transform="translate(574.4,363.0) rotate(-7.6)"><rect x="-19.1" y="-43.9" width="38.2" height="58.5" fill="#555555"  filter="url(#shadow)"/><text x="0" y="2.2" font-family="Impact, Arial Black, sans-serif" font-size="45" fill="#FFFFFF" text-anchor="middle" dominant-baseline="middle">C</text></g>
<g transform="translate(615.6,357.8) rotate(9.1)"><rect x="-17.0" y="-39.0" width="34.0" height="52.0" fill="#555555"  filter="url(#shadow)"/><text x="0" y="2.0" font-family="Impact, Arial Black, sans-serif" font-size="40" fill="#FFFFFF" text-anchor="middle" dominant-baseline="middle">Y</text></g>
<g transform="translate(650.0,359.9) rotate(-9.9)"><rect x="-18.2" y="-41.9" width="36.5" height="55.9" fill="#000000"  filter="url(#shadow)"/><text x="0" y="2.1" font-family="Impact, Arial Black, sans-serif" font-size="43" fill="#FFFFFF" text-anchor="middle" dominant-baseline="middle">.</text></g>
<g transform="translate(149.9,412.9) rotate(3.5)"><rect x="-17.4" y="-40.0" width="34.9" height="53.3" fill="#E50012"  filter="url(#shadow)"/><text x="0" y="2.1" font-family="Impact, Arial Black, sans-serif" font-size="41" fill="#FFFFFF" text-anchor="middle" dominant-baseline="middle">-</text></g>
<g transform="translate(211.4,408.1) rotate(-6.7)"><rect x="-20.8" y="-47.8" width="41.6" height="63.7" fill="#555555"  filter="url(#shadow)"/><text x="0" y="2.5" font-family="Impact, Arial Black, sans-serif" font-size="49" fill="#FFFFFF" text-anchor="middle" dominant-baseline="middle">Y</text></g>
<g transform="translate(251.9,409.3) rotate(-0.6)"><rect x="-20.4" y="-46.8" width="40.8" height="62.4" fill="#555555"  filter="url(#shadow)"/><text x="0" y="2.4" font-family="Impact, Arial Black, sans-serif" font-size="48" fill="#FFFFFF" text-anchor="middle" dominant-baseline="middle">A</text></g>
<g transform="translate(292.1,408.1) rotate(-3.6)"><rect x="-18.2" y="-41.9" width="36.5" height="55.9" fill="#555555"  filter="url(#shadow)"/><text x="0" y="2.1" font-family="Impact, Arial Black, sans-serif" font-size="43" fill="#FFFFFF" text-anchor="middle" dominant-baseline="middle">S</text></g>
<g transform="translate(328.0,412.4) rotate(5.3)"><rect x="-17.9" y="-41.0" width="35.7" height="54.6" fill="#FFFFFF"  filter="url(#shadow)"/><text x="0" y="2.1" font-family="Impact, Arial Black, sans-serif" font-size="42" fill="#000000" text-anchor="middle" dominant-baseline="middle">E</text></g>
<g transform="translate(365.5,412.6) rotate(-5.4)"><rect x="-20.8" y="-47.8" width="41.6" height="63.7" fill="#E50012"  filter="url(#shadow)"/><text x="0" y="2.5" font-family="Impact, Arial Black, sans-serif" font-size="49" fill="#FFFFFF" text-anchor="middle" dominant-baseline="middle">R</text></g>
<g transform="translate(433.5,408.0) rotate(11.5)"><rect x="-19.1" y="-43.9" width="38.2" height="58.5" fill="#555555"  filter="url(#shadow)"/><text x="0" y="2.2" font-family="Impact, Arial Black, sans-serif" font-size="45" fill="#FFFFFF" text-anchor="middle" dominant-baseline="middle">S</text></g>
<g transform="translate(471.0,406.3) rotate(-4.7)"><rect x="-17.0" y="-39.0" width="34.0" height="52.0" fill="#000000"  filter="url(#shadow)"/><text x="0" y="2.0" font-family="Impact, Arial Black, sans-serif" font-size="40" fill="#FFFFFF" text-anchor="middle" dominant-baseline="middle">H</text></g>
<g transform="translate(505.3,406.3) rotate(1.3)"><rect x="-19.9" y="-45.8" width="39.9" height="61.1" fill="#FFFFFF"  filter="url(#shadow)"/><text x="0" y="2.4" font-family="Impact, Arial Black, sans-serif" font-size="47" fill="#000000" text-anchor="middle" dominant-baseline="middle">A</text></g>
<g transform="translate(543.8,409.4) rotate(1.8)"><rect x="-17.9" y="-41.0" width="35.7" height="54.6" fill="#FFFFFF" stroke="#000" stroke-width="1" stroke-dasharray="2,2" filter="url(#shadow)"/><text x="0" y="2.1" font-family="Impact, Arial Black, sans-serif" font-size="42" fill="#000000" text-anchor="middle" dominant-baseline="middle">W</text></g>
<g transform="translate(579.9,413.2) rotate(10.6)"><rect x="-19.6" y="-44.8" width="39.1" height="59.8" fill="#555555"  filter="url(#shadow)"/><text x="0" y="2.3" font-family="Impact, Arial Black, sans-serif" font-size="46" fill="#FFFFFF" text-anchor="middle" dominant-baseline="middle">D</text></g>
<g transform="translate(619.9,405.5) rotate(-10.2)"><rect x="-17.9" y="-41.0" width="35.7" height="54.6" fill="#E50012"  filter="url(#shadow)"/><text x="0" y="2.1" font-family="Impact, Arial Black, sans-serif" font-size="42" fill="#FFFFFF" text-anchor="middle" dominant-baseline="middle">F</text></g>
<g transform="translate(653.5,410.6) rotate(-10.0)"><rect x="-19.6" y="-44.8" width="39.1" height="59.8" fill="#555555"  filter="url(#shadow)"/><text x="0" y="2.3" font-family="Impact, Arial Black, sans-serif" font-size="46" fill="#FFFFFF" text-anchor="middle" dominant-baseline="middle">I</text></g>
</svg>