<svg xmlns="http://www.w3.org/2000/svg" width="850" height="500" viewBox="0 0 850 500">\n<defs>\n<filter id="shadow"><feDropShadow dx="5" dy="5" stdDeviation="3" flood-color="#000" flood-opacity="0.8"/></filter>\n<clipPath id="card-clip"><rect x="40" y="40" width="770" height="420" rx="15" /></clipPath>\n</defs>\n<g transform="translate(425, 250) rotate(-6) translate(-425, -250)">\n<rect x="40" y="40" width="770" height="420" rx="15" fill="#E50012" filter="url(#shadow)"/>\n<g clip-path="url(#card-clip)">\n<ellipse cx="425" cy="250" rx="80" ry="50" fill="none" stroke="#000000" stroke-width="45"/>\n<ellipse cx="425" cy="250" rx="170" ry="110" fill="none" stroke="#000000" stroke-width="45"/>\n<ellipse cx="425" cy="250" rx="260" ry="170" fill="none" stroke="#000000" stroke-width="45"/>\n<ellipse cx="425" cy="250" rx="350" ry="230" fill="none" stroke="#000000" stroke-width="45"/>\n<ellipse cx="425" cy="250" rx="440" ry="290" fill="none" stroke="#000000" stroke-width="45"/>\n<ellipse cx="425" cy="250" rx="530" ry="350" fill="none" stroke="#000000" stroke-width="45"/>\n<ellipse cx="425" cy="250" rx="620" ry="410" fill="none" stroke="#000000" stroke-width="45"/>\n<ellipse cx="425" cy="250" rx="710" ry="470" fill="none" stroke="#000000" stroke-width="45"/>\n<ellipse cx="425" cy="250" rx="30" ry="20" fill="#000000"/>\n</g>\n<g transform="translate(226.9,102.2) rotate(1.4)"><rect x="-20.2" y="-45.6" width="40.5" height="60.8" fill="#555555"  filter="url(#shadow)"/><text x="0" y="2.2" font-family="Impact, Arial Black, sans-serif" font-size="45" fill="#FFFFFF" text-anchor="middle" dominant-baseline="middle">S</text></g>\n<g transform="translate(265.4,104.0) rotate(2.7)"><rect x="-20.7" y="-46.6" width="41.4" height="62.1" fill="#E50012"  filter="url(#shadow)"/><text x="0" y="2.3" font-family="Impact, Arial Black, sans-serif" font-size="46" fill="#FFFFFF" text-anchor="middle" dominant-baseline="middle">I</text></g>\n<g transform="translate(311.7,98.9) rotate(5.2)"><rect x="-20.7" y="-46.6" width="41.4" height="62.1" fill="#000000"  filter="url(#shadow)"/><text x="0" y="2.3" font-family="Impact, Arial Black, sans-serif" font-size="46" fill="#FFFFFF" text-anchor="middle" dominant-baseline="middle">R</text></g>\n<g transform="translate(376.1,101.3) rotate(8.0)"><rect x="-20.7" y="-46.6" width="41.4" height="62.1" fill="#E50012"  filter="url(#shadow)"/><text x="0" y="2.3" font-family="Impact, Arial Black, sans-serif" font-size="46" fill="#FFFFFF" text-anchor="middle" dominant-baseline="middle">V</text></g>\n<g transform="translate(420.9,101.3) rotate(6.0)"><rect x="-20.2" y="-45.6" width="40.5" height="60.8" fill="#E50012"  filter="url(#shadow)"/><text x="0" y="2.2" font-family="Impact, Arial Black, sans-serif" font-size="45" fill="#FFFFFF" text-anchor="middle" dominant-baseline="middle">I</text></g>\n<g transform="translate(463.6,102.4) rotate(-0.8)"><rect x="-20.2" y="-45.6" width="40.5" height="60.8" fill="#FFFFFF"  filter="url(#shadow)"/><text x="0" y="2.2" font-family="Impact, Arial Black, sans-serif" font-size="45" fill="#000000" text-anchor="middle" dominant-baseline="middle">S</text></g>\n<g transform="translate(503.8,100.4) rotate(2.1)"><rect x="-22.5" y="-50.6" width="45.0" height="67.5" fill="#E50012"  filter="url(#shadow)"/><text x="0" y="2.5" font-family="Impact, Arial Black, sans-serif" font-size="50" fill="#FFFFFF" text-anchor="middle" dominant-baseline="middle">I</text></g>\n<g transform="translate(550.9,103.2) rotate(-8.6)"><rect x="-18.0" y="-40.5" width="36.0" height="54.0" fill="#FFFFFF"  filter="url(#shadow)"/><text x="0" y="2.0" font-family="Impact, Arial Black, sans-serif" font-size="40" fill="#000000" text-anchor="middle" dominant-baseline="middle">T</text></g>\n<g transform="translate(582.7,99.6) rotate(-6.1)"><rect x="-23.4" y="-52.7" width="46.8" height="70.2" fill="#000000"  filter="url(#shadow)"/><text x="0" y="2.6" font-family="Impact, Arial Black, sans-serif" font-size="52" fill="#FFFFFF" text-anchor="middle" dominant-baseline="middle">O</text></g>\n<g transform="translate(635.3,98.7) rotate(-9.8)"><rect x="-22.1" y="-49.7" width="44.1" height="66.2" fill="#555555"  filter="url(#shadow)"/><text x="0" y="2.5" font-family="Impact, Arial Black, sans-serif" font-size="49" fill="#FFFFFF" text-anchor="middle" dominant-baseline="middle">R</text></g>\n<g transform="translate(227.2,165.4) rotate(1.0)"><rect x="-22.5" y="-50.6" width="45.0" height="67.5" fill="#000000"  filter="url(#shadow)"/><text x="0" y="2.5" font-family="Impact, Arial Black, sans-serif" font-size="50" fill="#FFFFFF" text-anchor="middle" dominant-baseline="middle">T</text></g>\n<g transform="translate(268.4,168.8) rotate(7.0)"><rect x="-21.6" y="-48.6" width="43.2" height="64.8" fill="#555555"  filter="url(#shadow)"/><text x="0" y="2.4" font-family="Impact, Arial Black, sans-serif" font-size="48" fill="#FFFFFF" text-anchor="middle" dominant-baseline="middle">H</text></g>\n<g transform="translate(311.2,165.0) rotate(5.5)"><rect x="-22.9" y="-51.7" width="45.9" height="68.9" fill="#000000"  filter="url(#shadow)"/><text x="0" y="2.6" font-family="Impact, Arial Black, sans-serif" font-size="51" fill="#FFFFFF" text-anchor="middle" dominant-baseline="middle">E</text></g>\n<g transform="translate(382.6,165.2) rotate(9.5)"><rect x="-21.6" y="-48.6" width="43.2" height="64.8" fill="#E50012"  filter="url(#shadow)"/><text x="0" y="2.4" font-family="Impact, Arial Black, sans-serif" font-size="48" fill="#FFFFFF" text-anchor="middle" dominant-baseline="middle">P</text></g>\n<g transform="translate(432.8,166.2) rotate(4.7)"><rect x="-19.8" y="-44.5" width="39.6" height="59.4" fill="#555555"  filter="url(#shadow)"/><text x="0" y="2.2" font-family="Impact, Arial Black, sans-serif" font-size="44" fill="#FFFFFF" text-anchor="middle" dominant-baseline="middle">H</text></g>\n<g transform="translate(474.7,168.2) rotate(4.2)"><rect x="-20.2" y="-45.6" width="40.5" height="60.8" fill="#FFFFFF" stroke="#000" stroke-width="2" stroke-dasharray="2,2" filter="url(#shadow)"/><text x="0" y="2.2" font-family="Impact, Arial Black, sans-serif" font-size="45" fill="#000000" text-anchor="middle" dominant-baseline="middle">A</text></g>\n<g transform="translate(512.8,163.0) rotate(-1.2)"><rect x="-18.0" y="-40.5" width="36.0" height="54.0" fill="#000000"  filter="url(#shadow)"/><text x="0" y="2.0" font-family="Impact, Arial Black, sans-serif" font-size="40" fill="#FFFFFF" text-anchor="middle" dominant-baseline="middle">N</text></g>\n<g transform="translate(550.6,168.0) rotate(-1.5)"><rect x="-18.0" y="-40.5" width="36.0" height="54.0" fill="#000000"  filter="url(#shadow)"/><text x="0" y="2.0" font-family="Impact, Arial Black, sans-serif" font-size="40" fill="#FFFFFF" text-anchor="middle" dominant-baseline="middle">T</text></g>\n<g transform="translate(590.7,161.4) rotate(-4.2)"><rect x="-21.1" y="-47.6" width="42.3" height="63.5" fill="#E50012"  filter="url(#shadow)"/><text x="0" y="2.4" font-family="Impact, Arial Black, sans-serif" font-size="47" fill="#FFFFFF" text-anchor="middle" dominant-baseline="middle">O</text></g>\n<g transform="translate(627.8,166.3) rotate(-2.4)"><rect x="-22.5" y="-50.6" width="45.0" height="67.5" fill="#555555"  filter="url(#shadow)"/><text x="0" y="2.5" font-family="Impact, Arial Black, sans-serif" font-size="50" fill="#FFFFFF" text-anchor="middle" dominant-baseline="middle">M</text></g>\n<g transform="translate(250.5,229.9) rotate(4.3)"><rect x="-22.1" y="-49.7" width="44.1" height="66.2" fill="#555555"  filter="url(#shadow)"/><text x="0" y="2.5" font-family="Impact, Arial Black, sans-serif" font-size="49" fill="#FFFFFF" text-anchor="middle" dominant-baseline="middle">D</text></g>\n<g transform="translate(295.2,231.7) rotate(1.1)"><rect x="-20.2" y="-45.6" width="40.5" height="60.8" fill="#E50012"  filter="url(#shadow)"/><text x="0" y="2.2" font-family="Impact, Arial Black, sans-serif" font-size="45" fill="#FFFFFF" text-anchor="middle" dominant-baseline="middle">E</text></g>\n<g transform="translate(341.8,233.7) rotate(2.5)"><rect x="-20.7" y="-46.6" width="41.4" height="62.1" fill="#E50012"  filter="url(#shadow)"/><text x="0" y="2.3" font-family="Impact, Arial Black, sans-serif" font-size="46" fill="#FFFFFF" text-anchor="middle" dominant-baseline="middle">V</text></g>\n<g transform="translate(382.7,231.0) rotate(4.4)"><rect x="-18.0" y="-40.5" width="36.0" height="54.0" fill="#000000"  filter="url(#shadow)"/><text x="0" y="2.0" font-family="Impact, Arial Black, sans-serif" font-size="40" fill="#FFFFFF" text-anchor="middle" dominant-baseline="middle">E</text></g>\n<g transform="translate(416.4,229.5) rotate(0.8)"><rect x="-23.4" y="-52.7" width="46.8" height="70.2" fill="#FFFFFF" stroke="#000" stroke-width="2" stroke-dasharray="2,2" filter="url(#shadow)"/><text x="0" y="2.6" font-family="Impact, Arial Black, sans-serif" font-size="52" fill="#000000" text-anchor="middle" dominant-baseline="middle">L</text></g>\n<g transform="translate(469.4,227.8) rotate(5.6)"><rect x="-19.8" y="-44.5" width="39.6" height="59.4" fill="#555555"  filter="url(#shadow)"/><text x="0" y="2.2" font-family="Impact, Arial Black, sans-serif" font-size="44" fill="#FFFFFF" text-anchor="middle" dominant-baseline="middle">O</text></g>\n<g transform="translate(510.7,229.0) rotate(1.6)"><rect x="-22.1" y="-49.7" width="44.1" height="66.2" fill="#E50012"  filter="url(#shadow)"/><text x="0" y="2.5" font-family="Impact, Arial Black, sans-serif" font-size="49" fill="#FFFFFF" text-anchor="middle" dominant-baseline="middle">P</text></g>\n<g transform="translate(549.8,232.5) rotate(5.3)"><rect x="-18.4" y="-41.5" width="36.9" height="55.4" fill="#555555"  filter="url(#shadow)"/><text x="0" y="2.1" font-family="Impact, Arial Black, sans-serif" font-size="41" fill="#FFFFFF" text-anchor="middle" dominant-baseline="middle">E</text></g>\n<g transform="translate(588.6,232.7) rotate(3.9)"><rect x="-19.8" y="-44.5" width="39.6" height="59.4" fill="#E50012"  filter="url(#shadow)"/><text x="0" y="2.2" font-family="Impact, Arial Black, sans-serif" font-size="44" fill="#FFFFFF" text-anchor="middle" dominant-baseline="middle">R</text></g>\n<g transform="translate(243.8,294.1) rotate(0.5)"><rect x="-18.9" y="-42.5" width="37.8" height="56.7" fill="#E50012"  filter="url(#shadow)"/><text x="0" y="2.1" font-family="Impact, Arial Black, sans-serif" font-size="42" fill="#FFFFFF" text-anchor="middle" dominant-baseline="middle">W</text></g>\n<g transform="translate(281.9,294.0) rotate(7.2)"><rect x="-22.5" y="-50.6" width="45.0" height="67.5" fill="#FFFFFF"  filter="url(#shadow)"/><text x="0" y="2.5" font-family="Impact, Arial Black, sans-serif" font-size="50" fill="#000000" text-anchor="middle" dominant-baseline="middle">I</text></g>\n<g transform="translate(327.6,296.7) rotate(-4.0)"><rect x="-20.2" y="-45.6" width="40.5" height="60.8" fill="#000000"  filter="url(#shadow)"/><text x="0" y="2.2" font-family="Impact, Arial Black, sans-serif" font-size="45" fill="#FFFFFF" text-anchor="middle" dominant-baseline="middle">L</text></g>\n<g transform="translate(369.7,291.8) rotate(8.6)"><rect x="-22.5" y="-50.6" width="45.0" height="67.5" fill="#555555"  filter="url(#shadow)"/><text x="0" y="2.5" font-family="Impact, Arial Black, sans-serif" font-size="50" fill="#FFFFFF" text-anchor="middle" dominant-baseline="middle">L</text></g>\n<g transform="translate(440.6,296.2) rotate(0.1)"><rect x="-22.5" y="-50.6" width="45.0" height="67.5" fill="#000000"  filter="url(#shadow)"/><text x="0" y="2.5" font-family="Impact, Arial Black, sans-serif" font-size="50" fill="#FFFFFF" text-anchor="middle" dominant-baseline="middle">S</text></g>\n<g transform="translate(482.8,294.7) rotate(-4.1)"><rect x="-18.4" y="-41.5" width="36.9" height="55.4" fill="#E50012"  filter="url(#shadow)"/><text x="0" y="2.1" font-family="Impact, Arial Black, sans-serif" font-size="41" fill="#FFFFFF" text-anchor="middle" dominant-baseline="middle">T</text></g>\n<g transform="translate(525.6,291.2) rotate(8.6)"><rect x="-23.4" y="-52.7" width="46.8" height="70.2" fill="#E50012"  filter="url(#shadow)"/><text x="0" y="2.6" font-family="Impact, Arial Black, sans-serif" font-size="52" fill="#FFFFFF" text-anchor="middle" dominant-baseline="middle">E</text></g>\n<g transform="translate(573.1,296.2) rotate(-6.8)"><rect x="-22.9" y="-51.7" width="45.9" height="68.9" fill="#000000"  filter="url(#shadow)"/><text x="0" y="2.6" font-family="Impact, Arial Black, sans-serif" font-size="51" fill="#FFFFFF" text-anchor="middle" dominant-baseline="middle">A</text></g>\n<g transform="translate(620.2,296.4) rotate(-0.8)"><rect x="-23.4" y="-52.7" width="46.8" height="70.2" fill="#E50012"  filter="url(#shadow)"/><text x="0" y="2.6" font-family="Impact, Arial Black, sans-serif" font-size="52" fill="#FFFFFF" text-anchor="middle" dominant-baseline="middle">L</text></g>\n<g transform="translate(242.4,362.3) rotate(-9.5)"><rect x="-18.4" y="-41.5" width="36.9" height="55.4" fill="#555555"  filter="url(#shadow)"/><text x="0" y="2.1" font-family="Impact, Arial Black, sans-serif" font-size="41" fill="#FFFFFF" text-anchor="middle" dominant-baseline="middle">Y</text></g>\n<g transform="translate(277.2,358.4) rotate(-8.4)"><rect x="-22.5" y="-50.6" width="45.0" height="67.5" fill="#000000"  filter="url(#shadow)"/><text x="0" y="2.5" font-family="Impact, Arial Black, sans-serif" font-size="50" fill="#FFFFFF" text-anchor="middle" dominant-baseline="middle">O</text></g>\n<g transform="translate(324.4,356.6) rotate(-6.9)"><rect x="-21.6" y="-48.6" width="43.2" height="64.8" fill="#000000"  filter="url(#shadow)"/><text x="0" y="2.4" font-family="Impact, Arial Black, sans-serif" font-size="48" fill="#FFFFFF" text-anchor="middle" dominant-baseline="middle">U</text></g>\n<g transform="translate(368.8,363.3) rotate(1.5)"><rect x="-18.0" y="-40.5" width="36.0" height="54.0" fill="#E50012"  filter="url(#shadow)"/><text x="0" y="2.0" font-family="Impact, Arial Black, sans-serif" font-size="40" fill="#FFFFFF" text-anchor="middle" dominant-baseline="middle">R</text></g>\n<g transform="translate(435.3,358.6) rotate(-5.5)"><rect x="-21.6" y="-48.6" width="43.2" height="64.8" fill="#E50012"  filter="url(#shadow)"/><text x="0" y="2.4" font-family="Impact, Arial Black, sans-serif" font-size="48" fill="#FFFFFF" text-anchor="middle" dominant-baseline="middle">B</text></g>\n<g transform="translate(474.7,356.6) rotate(-0.5)"><rect x="-22.5" y="-50.6" width="45.0" height="67.5" fill="#E50012"  filter="url(#shadow)"/><text x="0" y="2.5" font-family="Impact, Arial Black, sans-serif" font-size="50" fill="#FFFFFF" text-anchor="middle" dominant-baseline="middle">U</text></g>\n<g transform="translate(523.4,356.2) rotate(-2.8)"><rect x="-23.4" y="-52.7" width="46.8" height="70.2" fill="#000000"  filter="url(#shadow)"/><text x="0" y="2.6" font-family="Impact, Arial Black, sans-serif" font-size="52" fill="#FFFFFF" text-anchor="middle" dominant-baseline="middle">G</text></g>\n<g transform="translate(570.7,356.9) rotate(-8.8)"><rect x="-22.5" y="-50.6" width="45.0" height="67.5" fill="#000000"  filter="url(#shadow)"/><text x="0" y="2.5" font-family="Impact, Arial Black, sans-serif" font-size="50" fill="#FFFFFF" text-anchor="middle" dominant-baseline="middle">S</text></g>\n<g transform="translate(616.2,363.3) rotate(9.2)"><rect x="-18.9" y="-42.5" width="37.8" height="56.7" fill="#E50012"  filter="url(#shadow)"/><text x="0" y="2.1" font-family="Impact, Arial Black, sans-serif" font-size="42" fill="#FFFFFF" text-anchor="middle" dominant-baseline="middle">.</text></g>\n<g transform="translate(296.3,424.9) rotate(6.9)"><rect x="-18.0" y="-40.5" width="36.0" height="54.0" fill="#FFFFFF" stroke="#000" stroke-width="2" stroke-dasharray="2,2" filter="url(#shadow)"/><text x="0" y="2.0" font-family="Impact, Arial Black, sans-serif" font-size="40" fill="#000000" text-anchor="middle" dominant-baseline="middle">-</text></g>\n<g transform="translate(360.0,421.7) rotate(-9.7)"><rect x="-23.4" y="-52.7" width="46.8" height="70.2" fill="#555555"  filter="url(#shadow)"/><text x="0" y="2.6" font-family="Impact, Arial Black, sans-serif" font-size="52" fill="#FFFFFF" text-anchor="middle" dominant-baseline="middle">Y</text></g>\n<g transform="translate(405.7,424.5) rotate(6.4)"><rect x="-20.7" y="-46.6" width="41.4" height="62.1" fill="#FFFFFF"  filter="url(#shadow)"/><text x="0" y="2.3" font-family="Impact, Arial Black, sans-serif" font-size="46" fill="#000000" text-anchor="middle" dominant-baseline="middle">A</text></g>\n<g transform="translate(452.7,427.8) rotate(-9.8)"><rect x="-19.4" y="-43.6" width="38.7" height="58.1" fill="#000000"  filter="url(#shadow)"/><text x="0" y="2.1" font-family="Impact, Arial Black, sans-serif" font-size="43" fill="#FFFFFF" text-anchor="middle" dominant-baseline="middle">S</text></g>\n<g transform="translate(485.5,425.4) rotate(-1.5)"><rect x="-21.6" y="-48.6" width="43.2" height="64.8" fill="#FFFFFF" stroke="#000" stroke-width="2" stroke-dasharray="2,2" filter="url(#shadow)"/><text x="0" y="2.4" font-family="Impact, Arial Black, sans-serif" font-size="48" fill="#000000" text-anchor="middle" dominant-baseline="middle">E</text></g>\n<g transform="translate(535.9,427.7) rotate(-1.6)"><rect x="-19.4" y="-43.6" width="38.7" height="58.1" fill="#000000"  filter="url(#shadow)"/><text x="0" y="2.1" font-family="Impact, Arial Black, sans-serif" font-size="43" fill="#FFFFFF" text-anchor="middle" dominant-baseline="middle">R</text></g>\n</g>\n</svg>